<svg xmlns="http://www.w3.org/2000/svg" xmlns:svg="http://www.w3.org/2000/svg" xmlns:xlink="http://www.w3.org/1999/xlink" id="svg8" width="64.001" height="64.001" version="1.1" viewBox="0 0 16.933 16.933"><title id="title815">babylonjs demo</title><defs id="defs2"><linearGradient id="linearGradient975"><stop id="stop971" offset="0" stop-color="gray" stop-opacity="1"/><stop id="stop973" offset="1" stop-color="#333" stop-opacity="1"/></linearGradient><linearGradient id="linearGradient955"><stop id="stop951" offset="0" stop-color="#000" stop-opacity="1"/><stop id="stop953" offset="1" stop-color="#999" stop-opacity="1"/></linearGradient><linearGradient id="linearGradient957" x1="12.328" x2="12.328" y1="288.18" y2="280.496" gradientTransform="translate(0,-1.625e-6)" gradientUnits="userSpaceOnUse" xlink:href="#linearGradient955"/><linearGradient id="linearGradient977" x1="12.662" x2="12.662" y1="286.944" y2="281.499" gradientUnits="userSpaceOnUse" xlink:href="#linearGradient975"/><linearGradient id="linearGradient13179" x1="12.328" x2="12.328" y1="288.18" y2="280.496" gradientTransform="translate(0,-1.625e-6)" gradientUnits="userSpaceOnUse" xlink:href="#linearGradient955"/></defs><metadata id="metadata5"/><g id="layer2"><g id="bjs_button_off" display="inline" transform="translate(-5.1375e-5,-280.066)"><path id="path988" fill="#ccc" stroke="none" stroke-linecap="butt" stroke-linejoin="miter" stroke-opacity="1" stroke-width=".265" d="M 3.64374,280.068 0.005212,282.188 3.63962,284.275 V 284.301 L 3.66287,284.288 3.6856,284.301 V 284.275 Z"/><path id="path986" fill="#b3b3b3" stroke="none" stroke-linecap="butt" stroke-linejoin="miter" stroke-opacity="1" stroke-width=".265" d="M 3.64374,280.068 3.63962,284.275 V 284.301 L 3.66287,284.288 3.6856,284.301 V 284.275 L 7.32,282.188 Z"/><path id="path979" fill="#1a1a1a" stroke="none" stroke-linecap="butt" stroke-linejoin="miter" stroke-opacity="1" stroke-width=".265" d="M 3.64374,284.301 5.1375e-5,286.406 3.63962,288.508 V 288.534 L 3.66287,288.521 3.6856,288.534 V 288.508 L 7.32517,286.406 Z"/><path id="path990" fill="#4d4d4d" stroke="none" stroke-linecap="butt" stroke-linejoin="miter" stroke-opacity="1" stroke-width=".265" d="M 3.64374,284.301 0.005212,282.188 5.1375e-5,286.406 3.66261,284.275 7.32517,286.406 7.32,282.188 Z"/><path id="path828" fill="#333" stroke="none" stroke-linecap="butt" stroke-linejoin="miter" stroke-opacity="1" stroke-width=".265" d="M 0.207347,282.305 2.57542,283.685 V 284.916 L 3.68437,285.556 V 288.3 L 0.202349,286.29 Z"/><path id="path830" fill="#e6e6e6" stroke="none" stroke-linecap="butt" stroke-linejoin="miter" stroke-opacity="1" stroke-width=".265" d="M 1.25275,282.925 2.57542,283.685 V 284.916 L 3.68437,285.556 V 287.111 L 1.24976,285.701 Z"/><path id="path832" fill="#333" stroke="none" stroke-linecap="butt" stroke-linejoin="miter" stroke-opacity="1" stroke-width=".265" d="M 7.11786,282.305 4.74975,283.685 V 284.916 L 3.64083,285.556 V 288.3 L 7.12283,286.29 Z"/><path id="path834" fill="#e6e6e6" stroke="none" stroke-linecap="butt" stroke-linejoin="miter" stroke-opacity="1" stroke-width=".265" d="M 6.07245,282.925 4.74975,283.685 V 284.916 L 3.64083,285.556 V 287.111 L 6.07545,285.701 Z"/><path id="path838" fill="#999" stroke="none" stroke-linecap="butt" stroke-linejoin="miter" stroke-opacity="1" stroke-width=".265" d="M 0.207347,282.305 2.57542,283.685 3.67846,283.045 4.74975,283.685 7.11786,282.305 3.64465,280.302 Z"/><path id="path840" fill="#fff" stroke="none" stroke-linecap="butt" stroke-linejoin="miter" stroke-opacity="1" stroke-width=".265" d="M 1.25275,282.925 2.57542,283.685 3.67846,283.045 4.74975,283.685 6.09635,282.908 5.04811,282.306 6.0648,281.692 4.73231,280.926 Z"/><path id="path842" fill="#333" fill-opacity="1" stroke="none" stroke-linecap="butt" stroke-linejoin="miter" stroke-opacity="1" stroke-width=".265" d="M 2.57542,283.685 V 284.916 L 3.66265,284.293 4.74975,284.916 V 283.685 L 3.67846,283.045 Z"/><path id="path844" fill="gray" fill-opacity="1" stroke="none" stroke-linecap="butt" stroke-linejoin="miter" stroke-opacity="1" stroke-width=".265" d="M 2.57542,284.916 3.66265,284.293 4.74975,284.916 3.68437,285.556 Z"/></g><g id="bjs_button_bg" display="inline" transform="translate(-5.1375e-5,-280.066)"><path id="rect878" fill="#1a1a1a" fill-opacity="1" stroke="none" stroke-dasharray="none" stroke-dashoffset="0" stroke-linecap="round" stroke-linejoin="round" stroke-miterlimit="4" stroke-opacity="1" stroke-width=".106" d="M 8.46665,280.067 H 16.9333 V 288.534 H 8.46665 Z" opacity="1" paint-order="stroke fill markers"/><path id="rect949" fill="url(#linearGradient13179)" fill-opacity="1" stroke="none" stroke-dasharray="none" stroke-dashoffset="0" stroke-linecap="round" stroke-linejoin="round" stroke-miterlimit="4" stroke-opacity="1" stroke-width=".106" d="M 8.96778,280.568 H 16.4322 V 288.032 H 8.96778 Z" opacity="1" paint-order="stroke fill markers"/><path id="path887" fill="url(#linearGradient977)" fill-opacity="1" stroke="none" stroke-linecap="butt" stroke-linejoin="miter" stroke-opacity="1" stroke-width=".265" d="M 12.6442,281.073 9.86853,282.69 9.86453,285.908 12.6411,287.511 V 287.533 L 12.6589,287.522 12.6766,287.533 V 287.511 L 15.4532,285.908 15.4493,282.69 Z"/></g><g id="bjs_button_on" display="inline" transform="translate(-5.1375e-5,-271.602)"><path id="path1018" fill="#ccc" stroke="none" stroke-linecap="butt" stroke-linejoin="miter" stroke-opacity="1" stroke-width=".265" d="M 3.64374,280.068 0.005212,282.188 3.63962,284.275 V 284.301 L 3.66287,284.288 3.6856,284.301 V 284.275 Z"/><path id="path1020" fill="#b3b3b3" stroke="none" stroke-linecap="butt" stroke-linejoin="miter" stroke-opacity="1" stroke-width=".265" d="M 3.64374,280.068 3.63962,284.275 V 284.301 L 3.66287,284.288 3.6856,284.301 V 284.275 L 7.32,282.188 Z"/><path id="path1022" fill="#1a1a1a" stroke="none" stroke-linecap="butt" stroke-linejoin="miter" stroke-opacity="1" stroke-width=".265" d="M 3.64374,284.301 5.1375e-5,286.406 3.63962,288.508 V 288.534 L 3.66287,288.521 3.6856,288.534 V 288.508 L 7.32517,286.406 Z"/><path id="path1024" fill="#4d4d4d" stroke="none" stroke-linecap="butt" stroke-linejoin="miter" stroke-opacity="1" stroke-width=".265" d="M 3.64374,284.301 0.005212,282.188 5.1375e-5,286.406 3.66261,284.275 7.32517,286.406 7.32,282.188 Z"/><path id="path1026" fill="#333" stroke="none" stroke-linecap="butt" stroke-linejoin="miter" stroke-opacity="1" stroke-width=".265" d="M 0.207347,282.305 2.57542,283.685 V 284.916 L 3.68437,285.556 V 288.3 L 0.202349,286.29 Z"/><path id="path1028" fill="#55d400" stroke="none" stroke-linecap="butt" stroke-linejoin="miter" stroke-opacity="1" stroke-width=".265" d="M 1.25275,282.925 2.57542,283.685 V 284.916 L 3.68437,285.556 V 287.111 L 1.24976,285.701 Z"/><path id="path1030" fill="#333" stroke="none" stroke-linecap="butt" stroke-linejoin="miter" stroke-opacity="1" stroke-width=".265" d="M 7.11786,282.305 4.74975,283.685 V 284.916 L 3.64083,285.556 V 288.3 L 7.12283,286.29 Z"/><path id="path1032" fill="#55d400" stroke="none" stroke-linecap="butt" stroke-linejoin="miter" stroke-opacity="1" stroke-width=".265" d="M 6.07245,282.925 4.74975,283.685 V 284.916 L 3.64083,285.556 V 287.111 L 6.07545,285.701 Z"/><path id="path1034" fill="#999" stroke="none" stroke-linecap="butt" stroke-linejoin="miter" stroke-opacity="1" stroke-width=".265" d="M 0.207347,282.305 2.57542,283.685 3.67846,283.045 4.74975,283.685 7.11786,282.305 3.64465,280.302 Z"/><path id="path1036" fill="#b3ff80" stroke="none" stroke-linecap="butt" stroke-linejoin="miter" stroke-opacity="1" stroke-width=".265" d="M 1.25275,282.925 2.57542,283.685 3.67846,283.045 4.74975,283.685 6.09635,282.908 5.04811,282.306 6.0648,281.692 4.73231,280.926 Z"/><path id="path1038" fill="#333" fill-opacity="1" stroke="none" stroke-linecap="butt" stroke-linejoin="miter" stroke-opacity="1" stroke-width=".265" d="M 2.57542,283.685 V 284.916 L 3.66265,284.293 4.74975,284.916 V 283.685 L 3.67846,283.045 Z"/><path id="path1040" fill="gray" fill-opacity="1" stroke="none" stroke-linecap="butt" stroke-linejoin="miter" stroke-opacity="1" stroke-width=".265" d="M 2.57542,284.916 3.66265,284.293 4.74975,284.916 3.68437,285.556 Z"/></g></g></svg>